<svg width="320" height="65" fill="none" xmlns="http://www.w3.org/2000/svg"><path d="M298.258 31.687 319.126 0h-14.548l-13.452 21.002L277.668.026H263.12l20.866 31.687L262.545 64.5h14.642l13.912-22.107L305.006 64.5h14.644l-21.392-32.813ZM258.91 52.662h-32.761V38.135h32.761v-11.79h-32.761V11.79h32.761V.026h-44.456v64.448h44.456V52.662ZM209.314.026H158.06v11.79h19.785v52.658h11.715V11.79h19.769L209.314.026Zm-56.374 0h-11.705v64.448h11.715L152.94.026Zm-16.108 32.24a32.382 32.382 0 0 0-9.39-22.786A31.962 31.962 0 0 0 104.804.026H79.909v64.448h24.895a31.96 31.96 0 0 0 22.636-9.452 32.38 32.38 0 0 0 9.392-22.783v.027Zm-11.71-.027a20.5 20.5 0 0 1-1.542 7.825 20.396 20.396 0 0 1-4.405 6.632 20.26 20.26 0 0 1-6.595 4.425 20.16 20.16 0 0 1-7.776 1.541h-13.18V11.79h13.18a20.158 20.158 0 0 1 7.782 1.544 20.265 20.265 0 0 1 6.599 4.432 20.412 20.412 0 0 1 4.403 6.64 20.517 20.517 0 0 1 1.534 7.833ZM74.057.026H62.342v44.672L29.398.026H17.683v64.448h11.715V19.802l32.949 44.672h11.715L74.057.026Zm-62.237 0H.11v64.448h11.716L11.82.026Z" fill="#000"/></svg>