<?xml version="1.0" encoding="utf-8"?>
<!-- Generator: Adobe Illustrator 19.1.0, SVG Export Plug-In . SVG Version: 6.00 Build 0)  -->
<svg version="1.1" xmlns="http://www.w3.org/2000/svg" xmlns:xlink="http://www.w3.org/1999/xlink" x="0px" y="0px"
	 viewBox="0 0 1600 1058.289" enable-background="new 0 0 1600 1058.289" xml:space="preserve">
<g id="DESIGN">
	<rect x="0" y="0" width="1600" height="1058" fill="transparent"/>
	<g>
		<g>
			<g>
				<g>
					<g>
						<path fill="#11213A" stroke="rgba(255,255,255,0.15)" stroke-width="2" d="M722.707,414.616c-20.812-14.208-27.262,2.496-35.066,12.956c-8.252-2.549-15.502-4.875-22.818-6.967
							c-1.332-0.381-3.32-0.335-4.355,0.413c-6.341,4.587-11.201,0.561-15.375-3.128c-3.048-2.694-5.26-5.628-9.922-5.459
							c-1.655,0.06-3.444-1.805-5.067-2.94c-5.395-3.775-11.689-1.612-13.437,4.795c-0.848,3.108-1.076,6.405-2.118,9.433
							c-0.471,1.37-2.075,2.949-3.454,3.302c-5.594,1.431-6.424,4.817-4.528,9.573c1.277,3.201,1.335,5.692-1.944,8.096
							c-1.604,1.176-2.911,4.114-2.734,6.111c0.565,6.358-3.361,10.45-7.984,11.631c-3.326,0.85-8.647-1.622-11.464-4.306
							c-4.304-4.101-6.964-9.873-10.834-14.507c-1.645-1.97-4.428-3.501-6.966-4.125c-11.485-2.823-11.197-2.722-12.725-14.607
							c-0.535-4.163-3.024-8.095-4.758-12.073c-0.521-1.194-1.669-2.105-2.255-3.283c-4.586-9.226-12.381-13.421-22.353-12.509
							c-4.589,0.42-7.121-3.426-6.122-6.861c3.939-13.539-5.224-21.587-11.749-30.871c-2.504-3.562-5.14-7.123-6.989-11.028
							c-2.034-4.297,0.115-6.929,4.897-6.306c3.279,0.428,6.435,1.741,9.708,2.282c5.822,0.961,9.656-3.594,8.739-9.295
							c-1.872-11.639-2.674-23.485-5.142-34.983c-1.867-8.695,3.655-15.665,3.469-23.917c-0.318-14.101,0.649-28.23,0.438-42.337
							c-0.037-2.469-3.015-5.057-4.999-7.262c-0.951-1.057-2.813-1.242-4.159-2.003c-8.897-5.029-10.718-9.003-8.803-18.838
							c0.38-1.952,0.875-3.942,0.833-5.904c-0.081-3.834,1.763-5.05,5.341-4.984c6.899,0.126,13.806-0.126,20.702,0.064
							c4.625,0.127,6.104-1.793,6.19-6.354c0.308-16.324,0.452-16.322,16.558-16.321c15.138,0,30.277,0.046,45.415-0.02
							c7.049-0.031,13.062,0.876,15.69,9.098c0.965,3.018,4.294,5.465,6.924,7.732c7.307,6.299,14.823,12.356,22.238,18.53
							c5.051,4.206,9.789,8.858,15.175,12.574c6.79,4.684,13.915,8.732,15.726,17.773c0.336,1.678,1.303,3.328,2.315,4.753
							c2.738,3.854,3.1,8.094,3.984,12.66c2.124,10.965,5.67,22.097,17.313,27.554c0.991,0.464,2.277,0.739,2.881,1.522
							c6.9,8.941,17.883,11.04,27.103,15.958c8.563,4.567,9.626,5.794,5.182,14.49c-6.275,12.278-12.913,24.382-18.812,36.837
							c-1.653,3.49-2.364,8.18-1.599,11.929C714.316,379.751,718.339,395.868,722.707,414.616z"/>
					</g>
					<g>
						<path fill="#11213A" stroke="rgba(255,255,255,0.15)" stroke-width="2" d="M853.264,402.436c-0.602,3.396-1.204,6.793-1.479,8.344c-4.21,1.698-7.269,2.297-9.528,3.973
							c-4.811,3.57-9.126,7.798-13.798,11.566c-3.582,2.889-3.103,4.903-0.437,8.687c5.383,7.64,11.837,14.333,13.678,24.737
							c1.479,8.362,7.527,16.293,15.982,20.705c1.879,0.98,4.422,0.688,6.659,0.982c-0.044,0.534-0.087,1.069-0.131,1.603
							c-1.414-0.135-2.851-0.154-4.239-0.424c-5.501-1.069-10.824-0.784-14.919,3.42c-2.449,2.514-5.181,4.838-2.317,9.698
							c1.803,3.06,0.684,8.017,0.296,12.067c-0.093,0.972-2.708,2.642-3.782,2.386c-2.254-0.537-4.986-1.624-6.229-3.394
							c-5.002-7.115-8.561-8.131-15.686-3.744c-8.603-5.467-14.625-14.287-25.309-16.942c-15.878-3.946-27.918,0.715-36.246,15.388
							c-5.388-1.125-11.689-0.827-11.953-9.113c-0.036-1.126-1.189-2.36-2.086-3.293c-7.876-8.197-8.273-13.89-2.479-23.368
							c1.565-2.56,1.665-6.148,1.987-9.309c0.639-6.276,0.481-12.669,1.574-18.851c0.88-4.972,0.27-9.089-3.922-11.742
							c-8.79-5.563-12.331-13.873-14.257-23.622c-2.534-12.824-5.978-25.467-8.552-38.284c-0.643-3.201-0.346-7.202,1.05-10.097
							c6.656-13.809,13.795-27.387,20.896-40.977c0.864-1.654,2.627-4.197,3.81-4.11c9.492,0.7,11.039-9.273,17.397-12.873
							c2.233-1.264,1.622-7.184,2.752-10.841c2.231-7.219,3.945-14.946,14.272-14.691c1.899,0.047,3.859-2.363,4.698-2.916
							c10.726,1.176,20.54,2.687,30.403,3.159c5.393,0.258,8.449,2.359,9.557,7.221c1.083,4.752,4.314,6.135,8.401,8.059
							c9.259,4.358,16.978,10.609,20.368,21.21c1.935,6.05,5.406,11.61,8.199,17.384c1.446,2.991,3.166,5.876,4.329,8.972
							c2.125,5.654,4.727,10.365,10.005,14.285c4.303,3.196,6.575,9.225,9.442,14.174c0.581,1.002-0.205,2.795-0.361,4.224
							c-1.38-0.267-2.832-0.345-4.124-0.84c-2.691-1.032-6.428-3.984-7.722-3.122c-3.63,2.416-7.462,5.905-8.945,9.828
							c-1.977,5.229-2.225,10.75-9.36,11.89c-1.951,0.312-3.542,2.572-5.41,3.761c-4.531,2.882-4.626,7.396-2.551,11.077
							c1.309,2.323,5.21,3.185,7.949,4.702C851.851,403.068,852.557,402.752,853.264,402.436z"/>
					</g>
					<g>
						<path fill="#11213A" stroke="rgba(255,255,255,0.15)" stroke-width="2" d="M671.229,603.12c4.981-6.843,4.123-12.357-1.922-16.003c-2.614-1.577-5.61-2.556-8.494-3.643
							c-9.587-3.616-19.905-6.329-20.945-19.32c-0.106-1.326-1.466-2.804-2.622-3.75c-5.43-4.449-5.665-10.44-4.45-16.417
							c0.814-4.002,1.177-6.644-2.708-9.625c-3.103-2.38-4.271-7.121-7.015-10.167c-3.732-4.144-8.18-4.417-13.152-1.235
							c-1.435,0.918-6.011,0.078-6.206-0.696c-2.51-9.986-9.019-17.013-16.51-23.311c-6.107-5.135-7.35-18.603-3.566-25.391
							c1.914-3.434,3.794-6.666,9.262-5.452c4.509,1.001,11.317-6.276,12.905-11.586c0.956-3.198,3.271-5.979,4.31-9.165
							c1.053-3.228,2.193-6.879,1.643-10.059c-0.643-3.722,0.248-4.875,3.45-6.464c2.18-1.082,3.615-4.16,4.807-6.624
							c1.733-3.583,2.948-7.418,4.752-12.103c8.923,5.296,16.385,10.153,24.273,14.173c2.748,1.4,6.555,0.683,9.869,1.02
							c7.448,0.758,15.545-1.699,22.002,4.071c4.584,4.095,8.094,3.516,11.374-1.651c2.618-4.123,5.284-8.362,8.701-11.775
							c2.077-2.073,5.917-4.176,8.457-3.678c11.021,2.16,19.881,8.57,27.35,16.735c1.106,1.208,0.596,4.071,0.513,6.155
							c-0.225,5.651-0.4,11.32-1.031,16.933c-0.401,3.57-0.593,7.8-2.592,10.436c-6.354,8.381-6.169,18.119,1.031,25.748
							c2.101,2.226,3.045,5.501,4.888,8.027c1.487,2.038,3.222,4.289,5.385,5.359c4.514,2.233,9.384,3.746,14.781,5.813
							c1.672-4.208,3.43-8.634,5.337-13.434c8.017,5.473,6.364,12.702,6.037,19.386c-0.052,1.063-2.339,2.818-3.655,2.876
							c-5.214,0.233-10.992,1.315-15.578-0.459c-12.911-4.993-19.823,3.101-27.337,10.693c-1.669,1.687-3.264,3.648-5.293,4.741
							c-5.685,3.063-7.066,8.146-6.448,13.771c0.709,6.459-0.763,11.634-5.981,15.744c-1.468,1.156-3.096,2.959-3.353,4.661
							c-1.614,10.669-2.816,21.4-4.262,32.096c-0.352,2.608-0.345,5.841-1.878,7.558c-1.677,1.879-4.886,2.846-7.554,3.174
							c-1.167,0.143-3.143-2.047-3.905-3.595C682.254,599.291,679.578,598.331,671.229,603.12z"/>
					</g>
					<g>
						<path fill="#11213A" stroke="rgba(255,255,255,0.15)" stroke-width="2" d="M948.889,884.715c3.603-4.788,7.629-10.328,11.854-15.712c7.148-9.109,5.51-18.148-4.549-24.752
							c-6.591-4.326-6.086-11.943-5.978-17.908c0.076-4.214,5.103-8.585,8.55-12.301c0.758-0.817,5.26,0.124,6.177,1.498
							c2.517,3.773,5.13,3.057,7.867,1.143c2.799-1.958,5.222-4.339,2.814-8.323c-0.793-1.313-1.053-2.95-0.687-4.736
							c2.494,3.369,4.786,6.914,7.536,10.059c2.855,3.265,5.889,2.069,7.504-1.222c2.662-5.427,6.266-5.717,11.505-4.036
							c2.091,0.671,5.726-0.414,7.379-2.018c4.676-4.539,9.007-9.527,12.866-14.785c3.085-4.203,4.625-2.766,6.582,0.652
							c2.291,4.002,4.261,8.351,7.302,11.704c1.907,2.102,5.468,2.83,8.401,3.841c2.774,0.957,5.699,1.48,8.557,2.194
							c-0.733,2.568-1.083,5.333-2.283,7.659c-2.146,4.156-1.322,12.727,3.781,16.061c3.151,2.059,9.61,2.528,12.611,0.616
							c6.177-3.936,9.903-4.072,13.781,2.41c2.221,3.713,4.993,7.283,8.206,10.144c1.886,1.679,5.079,2.361,7.762,2.595
							c12.322,1.078,24.671,1.839,39.02,2.857c-2.297,4.02-4.421,6.609-5.338,9.571c-2.058,6.65-3.675,13.454-5.093,20.273
							c-0.301,1.449,1.007,3.232,2.35,7.089c-4.427-1.479-7.168-2.951-10.008-3.178c-2.502-0.2-5.115,0.991-6.794,1.369
							c-2.469-1.678-5.015-3.677-7.8-5.252c-9.577-5.413-13.946,1.794-20.402,7.125c-8.706,7.189-19.074,12.555-30.473,15.33
							c-7.41,1.804-14.584,4.555-21.927,6.658c-8.566,2.453-16.732-0.591-23.34-4.892c-8.204-5.34-17.016-6.535-25.92-6.953
							c-6.33-0.297-10.884-2.978-15.801-6.011C960.19,890.578,955.193,888.138,948.889,884.715z"/>
					</g>
					<g>
						<path fill="#11213A" stroke="rgba(255,255,255,0.15)" stroke-width="2" d="M159.249,134.743c32.565-2.932,62.771-5.651,93.742-8.439c-0.269,2.051-0.022,3.708-0.708,4.754
							c-2.409,3.676-5.23,7.079-7.686,10.726c-0.678,1.006-1.267,2.82-0.814,3.715c2.573,5.089,2.404,9.884,0.216,15.133
							c-0.497,1.193,1.803,4.275,3.516,5.526c4.802,3.508,5.665,7.41,4.421,13.282c-1.944,9.174-4.698,19.058-0.063,27.904
							c6.555,12.511,8.374,25.434,7.56,39.243c-0.188,3.187,1.539,7.154,3.669,9.677c4.987,5.906,7.81,12.684,15.878,17.33
							c12.196,7.023,24.526,16.545,26.837,33.403c0.524,3.824,6.184,8.547,10.412,9.866c5.636,1.757,5.877,5.809,7.616,9.634
							c0.965,2.121,2.181,5.684,3.547,5.813c8.426,0.795,6.984,8.364,9.319,13.059c1.638,3.294,0.096,5.948-4.389,5.909
							c-12.909-0.113-25.82,0.014-38.729-0.082c-3.895-0.029-5.378-1.288-5.256-6.14c0.193-7.715,3.296-16.285-3.798-23.041
							c-3.92-3.733-7.424-7.902-11.174-11.817c-5.288-5.52-10.138-11.607-16.066-16.333c-9.034-7.201-18.27-14.541-28.476-19.756
							c-8.578-4.383-10.341-12.226-11.838-19.174c-1.839-8.539-2.906-16.806-9.203-23.376c-0.456-0.476-1.238-1.09-1.176-1.545
							c1.399-10.284-7.083-15.214-11.309-22.57c-3.029-5.272-2.711-12.694-7.578-17.764c-1.83-1.907-3.73-3.907-4.934-6.212
							c-1.367-2.616-3.605-6.429-2.66-8.317c4.132-8.248-2.107-11.873-6.13-16.731c-1.682-2.032-2.816-4.522-4.17-6.821
							c-1.427-2.423-2.756-4.906-4.245-7.29C163.907,141.635,162.105,139.043,159.249,134.743z"/>
					</g>
					<g>
						<path fill="#11213A" stroke="rgba(255,255,255,0.15)" stroke-width="2" d="M733.741,764.735c-0.01-0.18-0.546-1.925-0.117-3.387c2.118-7.208-2.581-11.762-6.438-16.483
							c-0.703-0.86-3.864-0.865-4.971-0.036c-4.029,3.015-7.732,2.404-10.799-0.788c-3.625-3.771-6.481-1.968-7.84,1.288
							c-3.693,8.847-13.21,7.268-19.651,10.935c-2.576,1.466-11.633-2.698-13.128-6.244c-3.492-8.28-11.569-12.121-15.531-19.473
							c-4.342-8.058-8.654-16.133-13.64-25.434c4.061-0.946,7.52-1.813,11.006-2.549c4.606-0.973,7.369-3.206,7.871-8.389
							c0.545-5.622,2.864-10.343,9.761-10.337c0.222,0,0.509,0.058,0.657-0.054c8.52-6.467,13.707,0.428,19.614,4.782
							c2.638,1.944,5.56,3.5,8.903,5.574c1.981-7.715,3.396-13.925,5.273-19.993c0.419-1.354,2.338-2.415,3.775-3.255
							c7.821-4.57,7.975-9.352,0.958-14.693c-1.673-1.274-3.185-5.16-2.445-6.784c3.069-6.733-0.375-10.829-4.48-15.249
							c-2.288-2.463-8.076-4.153-4.686-8.681c2.16-2.885,6.616-4.099,10.129-5.892c0.924-0.471,2.171-0.31,3.7-0.49
							c0.385,0.937,0.628,1.978,1.192,2.798c1.058,1.542,2.301,2.957,3.468,4.425c1.128-1.661,2.704-3.179,3.292-5.014
							c1.203-3.757,1.876-7.683,2.375-9.843c0,2.942-0.283,7.543,0.126,12.081c0.189,2.092,1.764,5.791,2.656,5.774
							c3.059-0.057,6.943-0.566,8.934-2.516c2.866-2.806,4.348-7.025,6.655-11.049c0.73,1.029,1.37,2.376,2.404,3.268
							c1.115,0.962,2.598,1.498,3.607,2.049c-0.773,3.133-1.492,6.048-1.951,7.909c-4.725,2.809-9.004,4.985-12.851,7.76
							c-2.895,2.088-4.802,4.706-3.688,9.151c0.41,1.636-3.034,4.23-4.703,6.4c-1.202,1.562-2.68,3.013-3.447,4.771
							c-0.449,1.029,0.862,2.906,0.346,3.813c-4.598,8.091,1.368,9.125,6.843,10.725c6.34,1.854,12.675,3.751,18.919,5.902
							c4.663,1.606,7.096,0.237,6.694-4.679c-0.367-4.49,2.502-5.386,5.707-5.581c7.181-0.438,9.983-5.718,11.168-11.257
							c0.568-2.655-2.428-6.073-4.263-10.154c1.926,0.597,3.677,1.117,5.415,1.683c11.108,3.616,15.907,4.979,23.976-6.195
							c3.091-4.28,10.907-6.744,13.187-3.292c1.97,2.983,1.12,7.903,1.283,11.977c0.098,2.445-1.091,5.268-0.225,7.289
							c1.732,4.039,0.892,6.073-3.017,7.809c-9.484,4.212-13.193,13.107-16.807,21.882c-0.588,1.427-0.149,3.644,0.541,5.167
							c3.361,7.42,0.595,10.966-7.482,12.367c-7.048,1.222-13.727,4.564-20.577,6.947c-3.141,1.093-6.65,1.596-9.346,3.355
							c-2.369,1.545-5.231,4.382-5.385,6.806c-0.244,3.847,3.23,5.297,7.108,5.038c1.716-0.115,3.461,0.217,5.227,0.348
							c-2.2,10.817,1.083,20.341,10.76,25.155c-2.287,0.707-3.489,1.24-4.744,1.438c-5.435,0.858-9.903,2.804-13.126,7.836
							c-1.216,1.898-4.783,2.69-7.426,3.166C741.57,765.143,738.467,764.735,733.741,764.735z"/>
					</g>
					<g>
						<path fill="#11213A" stroke="rgba(255,255,255,0.15)" stroke-width="2" d="M1203.244,959.52c-5.656-7.375-11.308-14.753-16.971-22.122c-0.799-1.04-1.499-2.23-2.5-3.03
							c-10.689-8.537-21.515-16.906-32.126-25.539c-6.235-5.073-12.834-9.964-17.942-16.051c-2.815-3.354-3.866-9.004-3.906-13.634
							c-0.037-4.38,1.999-8.893,3.658-13.138c1.47-3.759,3.623-7.26,5.577-10.818c1.248-2.272,2.179-5.142,4.12-6.535
							c9.122-6.55,12.75-16.512,17.02-26.107c0.966-2.169,1.579-4.495,2.438-6.993c6.099,1.735,9.115,4.662,8.484,10.98
							c-0.791,7.926,5.922,11.258,10.845,15.301c1.137,0.934,5.017,0.117,6.47-1.19c8.168-7.342,16.359-14.569,26.657-18.837
							c1.896-0.786,3.998-1.076,5.901-1.567c2.857,4.998,4.996,10.091,8.311,14.246c6.098,7.643,12.523,15.109,19.522,21.919
							c4.469,4.349,10.239,7.351,15.37,11.034c1.428,1.025,3.202,2.075,3.88,3.546c2.328,5.055,3.037,11.049,9.884,12.97
							c0.704,0.198,0.497,5.755-0.362,8.488c-0.409,1.301-3.331,2.532-5.135,2.561c-13.342,0.215-26.693,0.303-40.033,0.025
							c-5.025-0.105-8.245,1.332-10.696,5.949c-4.791,9.023-10.208,17.713-15.236,26.614c-0.947,1.676-2.392,4.661-1.74,5.405
							c7.286,8.309-1.104,16.775,1.288,25.003C1205.097,958.506,1204.17,959.013,1203.244,959.52z"/>
					</g>
					<g>
						<path fill="#11213A" stroke="rgba(255,255,255,0.15)" stroke-width="2" d="M831.824,430.524c3.722-3.379,7.251-6.713,10.951-9.845c0.848-0.718,2.884-1.41,3.353-0.985
							c4.261,3.857,6.211-0.159,7.781-2.606c1.867-2.91,3.216-6.374,3.904-9.777c1.806-8.925-0.821-12.17-12.209-13.366
							c4.683-2.873,7.637-5.785,11.056-6.515c4.633-0.989,6.45-3.271,6.889-7.533c0.135-1.312,0.328-2.751,0.973-3.851
							c1.685-2.873,3.139-7.056,5.638-7.901c1.94-0.657,5.593,2.611,7.983,4.707c2.99,2.623,6.535,5.411,7.902,8.89
							c1.873,4.767,3.126,10.417,2.439,15.383c-0.777,5.612-1.316,10.077,4.574,12.868c-0.605,2.447-1.124,4.549-1.74,7.04
							c2.101,0.587,3.986,1.004,5.792,1.643c3.167,1.121,5.395,2.549,4.161,6.807c-1.156,3.988,0.122,7.111,4.651,8.904
							c3.355,1.328,6.519,3.514,6.075,8.406c-0.129,1.427,2.049,3.495,3.647,4.54c2.081,1.361,4.57,2.328,7.013,2.834
							c1.843,0.382,4.069,0.216,5.815-0.481c4.806-1.917,8.325,0.047,8.654,5.215c0.433,6.812,0.887,13.623,1.224,20.44
							c0.037,0.744-0.429,1.866-1.021,2.235c-5.85,3.643-8.933,11.423-18.092,10.409c-3.71-0.411-8.453,2.516-8.425,8.308
							c0.007,1.361-0.495,3.377-1.459,3.981c-4.959,3.108-10.366,5.535-15.164,8.854c-2.617,1.81-5.501,4.692-6.053,7.521
							c-0.377,1.931,3.07,4.608,5.69,8.141c-0.169,2.089-0.773,6.029-0.684,9.952c0.046,2.022,0.981,4.242,2.118,5.977
							c2.625,4.008,1.298,9.358-3.244,9.223c-11.549-0.343-11.871,8.253-13.555,13.676c-3.608,3.605-5.984,5.979-9.409,9.402
							c-0.926,0.065-3.734,0.263-6.676,0.471c-0.51-7.085-1.001-14.12-1.536-21.152c-0.1-1.314,0.091-3.021-0.641-3.856
							c-5.027-5.739-4.888-12.584-4.805-19.544c0.02-1.626-0.615-3.833-1.766-4.809c-8.501-7.209-5.541-16.26-4.394-25.056
							c0.165-1.263,0.638-2.629,0.338-3.784c-1.63-6.281,1.204-9.15,7.886-8.195c3.193,0.457,6.688,0.923,9.662,0.06
							c2.063-0.599,4.044-3.24,4.874-5.421c0.31-0.815-2.515-3.775-4.315-4.263c-5.664-1.537-11.103-2.652-12.441-9.828
							c-0.277-1.486-3.025-2.409-4.404-3.818c-1.79-1.828-4.829-3.932-4.765-5.83c0.369-10.829-7.42-17.188-12.668-24.951
							C832.92,432.336,832.49,431.593,831.824,430.524z"/>
					</g>
					<g>
						<path fill="#11213A" stroke="rgba(255,255,255,0.15)" stroke-width="2" d="M913.344,645.55c-3.464,3.106-5.849,4.79-7.652,6.958c-3.676,4.42-7.284,6.563-12.001,1.369
							c-0.675-0.743-2.439-1.583-2.928-1.249c-8.948,6.116-14.713-2.872-21.747-4.879c-9.663-2.757-9.42-3.606-14.877,5.662
							c-2.625-1.927-5.393-3.611-7.739-5.756c-4.355-3.983-8.659-6.969-15.22-6.803c-2.983,0.075-6.06-3.56-7.543-4.514
							c0.267-6.21,0.462-11.256,0.713-16.299c0.094-1.883-0.23-4.052,0.586-5.585c2.36-4.431,0.98-8.842-2.509-10.369
							c-3.226-1.412-9.338-1.319-11.452,0.814c-5.358,5.406-8.172,4.373-11.639-1.407c-1.183-1.973-3.55-3.3-5.516-4.729
							c-7.825-5.686-6.664-14.245-7.105-22.25c-0.046-0.84,0.946-1.987,1.757-2.585c6.436-4.747,13.078-9.225,19.39-14.128
							c5.217-4.053,10.535-8.148,14.966-12.995c5.282-5.777,9.5-12.514,14.518-18.554c2.12-2.551,5.106-4.383,7.698-6.541
							c1.811,3.365,4.137,6.56,5.315,10.133c1.903,5.767,3.34,11.729,4.434,17.708c1.07,5.845,1.519,11.809,2.129,17.732
							c0.25,2.428-0.61,5.383,0.498,7.21c1.521,2.506,5.884,6.306,6.532,5.867c9.023-6.115,9.778,5.293,15.665,5.896
							c-6.799,8.587-6.061,11.86,3.687,15.384c6.085,2.2,12.624,3.121,18.905,4.817c1.339,0.361,2.769,1.346,3.602,2.459
							c5.603,7.486,16.506,11.187,25.733,8.554c4.129-1.178,12.99,2.423,13.264,5.923c0.429,5.478-2.712,8.609-9.177,8.974
							c0.933,3.53,1.742,6.589,2.596,9.817c-5.864,6.626-5.933,8.057-0.481,14.174c0.036,0.43,0.263,1.083,0.066,1.256
							c-3.06,2.704-0.461,11.252-7.769,8.968c-5.637-1.761-11.603-4.574-13.137-11.805
							C916.305,651.94,914.821,649.287,913.344,645.55z"/>
					</g>
					<g>
						<path fill="#11213A" stroke="rgba(255,255,255,0.15)" stroke-width="2" d="M789.35,808.639c1.692-1.124,3.092-2.831,4.578-2.909c7.039-0.37,8.081-4.797,8.152-10.527
							c0.027-2.204,1.246-4.394,1.923-6.591c2.13,0.806,4.204,1.865,6.405,2.358c3.266,0.732,6.61,1.358,9.944,1.507
							c7.715,0.345,15.451,0.25,23.158,0.686c1.015,0.057,2.182,2.049,2.812,3.368c1.575,3.298,3.909,4.479,6.881,2.231
							c3.039-2.299,2.616-4.779,0.315-7.976c-1.987-2.76-3.177-6.521-3.384-9.921c-0.081-1.33,3.479-2.882,5.987-4.795
							c1.935,6.221,3.531,10.956,4.871,15.763c1.501,5.384,4.736,6.845,9.248,3.673c2.151-1.512,3.7-3.901,5.889-5.33
							c2.614-1.706,5.532-3.069,8.486-4.1c2.703-0.944,5.628-1.248,8.456-1.834c0.424-1.058,0.847-2.117,1.271-3.175
							c2.717,3.389,5.341,6.858,8.176,10.146c3.065,3.555,6.645,5.097,9.716,2.716c4.936,5.669,9.246,11.672,14.646,16.44
							c3.43,3.029,8.376,5.574,12.828,5.918c6.456,0.498,6.099,3.231,5.512,8.055c-0.996,8.182-0.251,16.257,5.791,22.733
							c1.159,1.242,2.977,1.847,4.419,2.851c5.985,4.169,4.983,13.16-1.078,17.26c-3.288,2.224-6.039,6.051-7.645,9.756
							c-2.159,4.98-5.683,7.237-8.892,3.396c-4.283-5.128-9.212-6.464-15.45-7.138c-8.525-0.92-16.908-3.187-25.337-4.948
							c-1.728-0.361-3.829-0.557-5.017-1.641c-13.545-12.362-31.914-13.811-47.537-21.361c-8.625-4.168-16.738-9.604-24.52-15.244
							c-5.802-4.206-10.37-10.102-16.121-14.395C799.915,812.688,794.903,811.232,789.35,808.639z"/>
					</g>
					<g>
						<path fill="#11213A" stroke="rgba(255,255,255,0.15)" stroke-width="2" d="M647.995,583.639c-1.945,4.008-4.854,7.747-5.39,11.8c-0.454,3.433,1.836,7.229,2.849,10.654
							c-5.627,0.833-9.026-3.547-12.807-7.726c-5.446-6.021-11.72-11.327-16.87-17.574c-8.543-10.364-16.146-21.508-24.786-31.784
							c-4.93-5.863-10.993-10.815-16.803-15.881c-3.939-3.435-8.533-5.865-8.604-12.36c-0.023-2.09-3.471-5.743-5.601-5.937
							c-10.51-0.957-15.776-4.864-15.55-15.136c0.171-7.779-3.715-11.12-9.669-14.111c-6.365-3.198-13.187-6.078-18.477-10.642
							c-4.309-3.717-12.126-7.272-7.365-15.884c0.334-0.604-0.432-2.59-1.026-2.762c-1.03-0.298-2.834-0.091-3.418,0.629
							c-2.237,2.76-4.117,5.808-6.675,9.546c-6.022-6.329-13.91-6.857-13.787-15.279c0.079-5.402,4.974-10.245,10.445-11.247
							c1.527-0.28,2.865-2.486,3.957-4.041c1.634-2.325,2.524-5.339,4.526-7.206c5.033-4.696,10.681-8.731,15.725-13.416
							c1.933-1.796,2.979-4.592,4.276-7.015c1.371-2.561,2.56-5.22,3.829-7.835c0.866-0.206,1.732-0.412,2.599-0.618
							c5.264,6.112,11.45,11.683,15.47,18.526c2.721,4.632,2.745,11.019,3.314,16.687c0.432,4.296,2.14,6.657,6.414,6.968
							c7.894,0.575,12.997,3.986,16.484,11.726c2.046,4.541,7.806,7.408,11.567,10.736c-8.681,17.01-7.97,29.736,1.682,40.057
							c3.262,3.488,7.078,6.489,10.095,10.161c1.736,2.113,2.597,5.054,3.467,7.747c2.461,7.621,8.823,10.137,14.802,5.252
							c2.997-2.449,5.693-2.507,7.231,0.427c2.871,5.475,5.876,11.212,6.997,17.184c1.307,6.968,0.929,14.165,7.076,19.311
							c0.88,0.737,1.253,2.342,1.437,3.607C636.504,575.74,641.096,580.438,647.995,583.639z"/>
					</g>
					<g>
						<path fill="#11213A" stroke="rgba(255,255,255,0.15)" stroke-width="2" d="M814.049,710.53c2.185,4.88,3.091,10.12,6.203,12.775c2.238,1.91,7.418,0.372,11.907,0.372
							c3.708,8.422,12.077,3.781,19.073,4.97c9.294,1.579,13.447-2.671,15.781-11.199c0.612,0.371,1.224,0.742,1.836,1.113
							c0,5.957,0.11,11.917-0.022,17.871c-0.292,13.076-8.22,22.546-15.495,32.299c-0.525,0.703-1.207,1.315-1.903,1.86
							c-2.571,2.013-6.394,3.489-7.449,6.096c-1.184,2.927,0.119,6.862,0.39,11.133c-4.505-0.553-8.837-1.382-13.192-1.524
							c-3.464-0.112-6.958,0.916-10.432,0.877c-2.818-0.031-5.611-1.035-8.443-1.354c-4.036-0.455-8.411-1.694-12.018-0.58
							c-1.854,0.573-2.232,5.573-3.511,8.469c-1.131,2.56-2.38,6.95-3.934,7.113c-6.583,0.689-9.081,3.935-7.971,10.943
							c-8.458-2.151-15.976-3.87-23.373-6.006c-5.516-1.593-10.747-4.58-16.335-5.43c-9.911-1.506-14.165-8.939-18.915-16.018
							c-1.864-2.778,3.06-10.835,7.926-12.892c2.19-0.926,5.183-2.126,7.02-1.343c8.232,3.506,11.557-2.396,16.007-7.076
							c1.731-1.82,4.917-3.168,7.431-3.153c6.242,0.038,6.8-5.287,8.462-8.854c0.617-1.325-2.742-4.576-4.407-6.861
							c-0.834-1.145-2.346-1.932-2.835-3.164c-1.305-3.292-3.966-6.568,0.046-10.281c0.523-0.484-2.227-5.905-4.521-7.625
							c-2.198-1.647-5.776-1.452-8.866-2.697c12.717-2.907,23.505-11.653,37.062-11.44c1.821,0.029,3.605,2.045,5.417,3.122
							c2.214,1.316,4.294,3.113,6.691,3.814C806.813,717.36,811.647,717.02,814.049,710.53z"/>
					</g>
					<g>
						<path fill="#11213A" stroke="rgba(255,255,255,0.15)" stroke-width="2" d="M1211.598,790.406c2.766,1.412,5.461,2.996,8.323,4.175c1.921,0.791,4.062,1.246,6.136,1.388
							c1.202,0.082,2.563-1.295,3.689-1.094c10.395,1.852,14.429-8.388,23.044-10.718c-2.52-3.511-4.394-6.121-6.787-9.455
							c6.563-5.539,12.55-11.399,19.347-16.083c5.858-4.037,6.889-9.555,6.889-15.564c0-5.14,1.441-8.916,5.895-11.784
							c3.86-2.486,4.865-6.034,4.09-10.941c-0.92-5.831-0.217-11.919-0.217-18.536c9.488,2.898,18.625,5.159,23.613,15.22
							c2.019,4.073,6.928,6.608,9.651,10.459c5.799,8.204,9.523,17.882,18.594,23.646c5.298,3.366,5.563,9.126,3.889,14.375
							c-3.295,10.331-2.034,20.447-0.425,30.799c0.516,3.319-1.176,7.012-2.023,10.494c-0.25,1.031-1.545,1.927-1.542,2.882
							c0.029,9.643-6.735,8.255-12.879,8.209c-17.793-0.131-35.586-0.141-53.38-0.207c-3.291-0.012-6.986,0.709-7.39-4.366
							c-0.054-0.676-0.99-1.643-1.7-1.85c-6.974-2.032-13.931-4.177-21.012-5.758c-3.236-0.722-6.764-0.521-7.782,4.095
							c-0.211,0.956-1.709,2.034-2.806,2.32c-5.339,1.394-15.095-7.123-14.806-12.583c0.163-3.088-0.141-6.201-0.235-9.303
							L1211.598,790.406z"/>
					</g>
					<g>
						<path fill="#11213A" stroke="rgba(255,255,255,0.15)" stroke-width="2" d="M1377.471,708.179c14.358-1.866,25.365-13.213,28.28-27.534c1.023-5.023,0.481-10.422,0.234-15.63
							c-0.228-4.833,2.345-5.039,6.218-5.36c4.15-0.344,8.182-2.108,13.124-3.493c10.677,12.493,9.093,26.319-5.559,38.687
							c-9.29,7.841-15.492,17.322-16.553,30.058c-0.284,3.412-3.818,7.448-6.966,9.505c-4.206,2.749-3.646,4.983-2.097,8.775
							c1.203,2.943,0.823,6.493,1.541,9.685c0.663,2.95,1.85,5.782,2.807,8.667c0.57-0.059,1.14-0.117,1.71-0.176
							c-1.455,5.309-2.806,10.65-4.396,15.918c-1.517,5.027-3.284,9.979-5.033,15.24c-4.149-1.968-6.941-3.988-5.156-9.845
							c1.007-3.303-0.68-7.427-2.229-11.425c-4.426,4.519-12.653,4.928-11.839,13.635c0.09,0.966-3.012,3.117-4.7,3.19
							c-4.473,0.193-6.541,2.294-8.302,6.246c-2.326,5.222-5.68,9.983-8.539,14.972c-2.565,4.476-5.552,3.409-9.193,0.384
							c3.905-8.975,0.781-18.11-0.133-27.381c-0.438-4.443,0.447-9.277,1.828-13.583c2.631-8.202,0.734-15.963-6.661-22.752
							c-1.964-1.803-5.036-3.021-5.92-5.192c-0.816-2.004-0.193-6.4,1.212-7.175c4.736-2.612,10.322-3.645,15.177-6.087
							c7.518-3.782,14.782-8.095,21.993-12.45C1371.568,713.097,1374.432,710.492,1377.471,708.179z"/>
					</g>
					<g>
						<path fill="#11213A" stroke="rgba(255,255,255,0.15)" stroke-width="2" d="M1323.843,730.537c-7.213-9.328-14.093-18.36-21.17-27.235c-1.09-1.367-3.268-3.052-4.626-2.811
							c-5.616,0.998-9.681-2.229-11.86-5.896c-2.864-4.819,1.991-16.815,6.633-19.457c10.584-6.023,22.109-8.431,34.1-10.231
							c11.215-1.684,21.97-6.32,33.168-8.269c9.866-1.717,19.984-5.534,30.158-0.6c3.42,1.658,8.442,1.884,10.221,4.483
							c1.535,2.242-0.601,6.916-0.898,10.533c-0.124,1.51,0.198,3.09,0.51,4.598c2.398,11.602-10.027,25.439-21.845,25.105
							c-2.528-0.071-5.144,3.224-7.731,4.952c-7.077,4.728-13.848,10.035-21.326,14.01
							C1341.337,723.887,1332.816,726.775,1323.843,730.537z"/>
					</g>
					<g>
						<path fill="#11213A" stroke="rgba(255,255,255,0.15)" stroke-width="2" d="M920.387,799.4c4.837-2.811,6.563-7.318,12.206-4.187c3.63,2.015,4.163-1.744,4.131-5.078
							c-0.056-5.675,0.539-11.354,0.828-17.034c0.37-7.267,0.706-14.535,1.135-23.425c2.375,2.501,4.292,4.23,5.864,6.23
							c4.5,5.724,8.278,13.07,17.391,6.665c7.398,2.934,10.474-6.515,17.045-5.95c0.149-2.445,1.406-5.925,0.256-7.157
							c-5.132-5.496-10.152-12.693-16.697-14.927c-11.935-4.074-3.406-8.702-2.402-13.719c0.641-3.198-0.801-6.814-1.252-9.858
							c3.782-6.503,7.889-13.566,11.781-20.258c1.468,2.668,3.182,5.781,4.967,9.023c-5.057,0.268-6.698,5.162-4.779,9.748
							c1.681,4.016,5.961,7.004,9.341,10.183c0.479,0.45,2.96-0.193,3.493-1.003c3.556-5.406,7.188-3.506,9.583-1.57
							c-2.39,10.122-4.703,19.443-6.692,28.832c-0.322,1.52,0.255,4.08,1.353,4.89c3.15,2.324,6.78,3.997,9.806,5.692
							c-4.222,0.812-6.451,3.657-6.006,9.136c0.228,2.806-1.314,5.77-2.135,8.641c-0.362,1.266-1.284,2.465-1.324,3.715
							c-0.201,6.137,6.508,5.93,8.676,9.124c2.898,4.27,4.167,8.107,10.255,5.053c1.258-0.631,3.349,0.396,5.056,0.659
							c-0.493,1.886-0.375,4.628-1.594,5.499c-3.803,2.715-6.828,6.929-13.293,4.269c-2.807-1.155-7.656,2.652-13.24,4.863
							c-0.568-2.367-1.657-5.882-2.202-9.479c-0.499-3.294-1.754-4.17-4.912-2.965c-6.631,2.531-9.501,9.497-6.558,16.381
							c-5.302-4.312-11.746-3.226-17.664-0.139c-3.692,1.926-9.795,1.625-13.826-0.054
							C932.747,808.606,927.362,803.976,920.387,799.4z"/>
					</g>
					<g>
						<path fill="#11213A" stroke="rgba(255,255,255,0.15)" stroke-width="2" d="M885.205,666.635c-9.31-0.953-11.487,1.004-12.632,12.729c-3.863-0.578-7.709-1.449-11.582-1.59
							c-1.583-0.057-4.192,1.099-4.661,2.337c-1.537,4.056-3.381,8.478-3.091,12.618c0.342,4.88,1.8,10.309,4.57,14.233
							c3.529,4.999,4.778,10.129,1.025,14.052c-2.245,2.346-7.741,1.729-11.806,2.125c-2.162,0.211-4.389-0.256-6.996-0.447
							c-1.745-6.891-4.852-8.439-12.462-5.005c-4.4,1.986-6.329,0.352-5.207-3.82c1.091-4.057-0.567-6.507-3.705-7.176
							c-2.918-0.622-6.965-0.523-9.199,1.086c-6.483,4.672-6.692,4.918-10.977-2.111c-0.781-1.281-2.004-2.293-3.148-3.568
							c3.256-3.833,3.71-7.452,0.08-11.319c-0.956-1.018-1.521-3.84-0.834-4.731c4.356-5.658,8.675-11.481,13.88-16.307
							c4.073-3.777,8.63-6.426,5.609-13.07c-0.575-1.265,0.093-3.196,0.45-4.759c0.571-2.5,1.361-4.949,2.526-9.076
							c1.813,0.496,4.56,1.195,7.269,2.017c1.036,0.314,2.184,1.528,2.946,1.285c8.69-2.779,13.448,3.705,19.114,7.956
							c8.47,6.355,10.706,6.009,16.137-3.243C871.134,654.638,881.234,656.192,885.205,666.635z"/>
					</g>
					<g>
						<path fill="#11213A" stroke="rgba(255,255,255,0.15)" stroke-width="2" d="M818.582,614.272c-0.076-2.071,0.109-4.152,0.179-6.229c-2.041,0.883-4.28,1.476-6.082,2.709
							c-3.737,2.556-8.04,5.951-11.846,2.156c-6.483-6.465-12.348-13.682-17.567-21.211c-1.842-2.657-0.644-7.248-1.504-10.793
							c-2.178-8.979,0.537-12.969,9.682-14.064c1.494-0.179,2.959-1.641,4.192-2.776c4.353-4.008,7.983-9.266,13.004-11.999
							c14.979-8.154,21.483-23.187,30.533-34.688c-3.534-2.417-7.805-3.997-9.846-7.063c-2.726-4.096-4.78-4.904-9.13-2.727
							c-6.159,3.082-9.772,1.301-13.631-4.306c-5.253-7.633-11.799-13.789-22.053-13.174c-4.568,0.274-9.104,1.073-11.983,1.427
							c1.431,8.178,2.826,15.712,4.048,23.274c0.858,5.311-1.97,8.372-6.942,8.348c-8.073-0.04-16.136-1.037-24.214-1.276
							c-2.375-0.07-5.324,0.374-7.073,1.763c-4.609,3.66-8.144,8.951-13.132,11.795c-7.979,4.549-6.906,10.935-5.341,17.654
							c0.82,3.523,0.244,5.338-2.788,7.742c-3.752,2.975-8.21,7.021-9.1,11.284c-2.453,11.753-3.33,32.938-11.493,41.419
							c0.662,0.924,1.302,1.863,1.947,2.8c0.493,0.716,1.309,2.198,2.219,2.805c5.269-3.022,9.871-7.793,8.315-12.873
							c-2.74-8.945,1.764-13.205,8.883-9.465c4.531,2.38,7.717,7.517,11.076,11.757c0.629,0.794-1.008,3.175-1.191,4.867
							c-0.351,3.252-0.409,6.534-0.589,9.805l2.905,0.505c1.792-5.715,3.585-11.431,5.678-18.104
							c4.32,3.282,7.281,5.57,10.284,7.802c3.081,2.29,7.8,3.535,6.455,8.833c-1.461,5.757-1.377,12.248-9.663,14.02
							c-4.595,0.983-9.712,2.959-10.43,9.68c-0.407,3.806-2.233,7.89-4.58,10.963c-3.862,5.058-3.796,7.161,2.061,9.507
							c3.9,1.562,7.903,2.873,11.77,4.509c3.373,1.427,5.711,1.417,5.768-3.086c0.05-4.022,2.425-4.72,5.991-5.458
							c3.994-0.827,7.645-3.315,12.665-5.646c-3.134-2.734-5.663-3.87-6.209-5.623c-1.479-4.757-3.656-10.095-2.718-14.614
							c1.328-6.401,5.175-12.285,8.025-18.353c0.233-0.497,1.062-0.741,1.647-1.04c4.667-2.387,9.263-4.945,14.073-7.002
							c1.151-0.492,3.447,0.237,4.49,1.194c4.995,4.587,11.335,7.218,14.464,14.589c1.882,4.434,9.248,6.541,13.973,9.579
							c5.884-4.287,7.948-9.01,5.488-15.408C818.614,618.311,818.654,616.222,818.582,614.272z"/>
					</g>
					<g>
						<path fill="#11213A" stroke="rgba(255,255,255,0.15)" stroke-width="2" d="M701.719,648.496c2.667-4.701,0.086-8.498-3.717-11.415c-5.231-4.011-8.213-8.474-4.953-14.917
							c1.064-0.219,2.237-0.571,3.451-1.037c-1.09-1.796-1.746-3.806-1.99-5.893c-0.128,0.088-0.251,0.186-0.382,0.269
							c-9.19,2.218-12.27-3.919-14.818-10.535c-1.734,0.727-2.705,1.211-3.724,1.545c-2.851,0.933-5.724,1.803-8.587,2.698
							c0.34-3.503,0.931-7.007,0.934-10.511c0.002-2.439-0.008-6.248-1.401-7.059c-4.011-2.335-8.726-3.46-12.455-4.805
							c-5.798,7.196-5.81,12.761-2.656,19.293c2.331,4.826-0.998,7.012-9.23,6.03c0.335,6.39-0.848,13.281,1.354,18.83
							c3.187,8.033,4.91,17.861,15.222,21.368c1.689,0.574,3.368,3.609,3.552,5.641c0.321,3.557-0.282,7.263-0.936,10.825
							c-0.859,4.68-0.936,9.773-6.15,12.525c-1.508,0.795-2.379,2.796-3.542,4.244c0.467,0.627,0.934,1.255,1.401,1.882
							c2.082-1.178,4.29-2.183,6.21-3.583c1.93-1.407,3.325-3.724,5.397-4.721c3.485-1.677,7.252-2.956,11.037-3.742
							c1.915-0.398,4.407,0.155,6.158,1.137c4.743,2.66,9.229,5.778,14.872,9.39c0.755-4.916,1.003-9.467,2.293-13.701
							c0.66-2.164,2.996-4.001,4.93-5.538c1.603-1.274,3.728-1.893,6.47-3.209c-2.31-1.715-3.262-2.731-4.434-3.238
							C700.386,657.832,698.314,654.498,701.719,648.496z"/>
					</g>
					<g>
						<path fill="#11213A" stroke="rgba(255,255,255,0.15)" stroke-width="2" d="M929.676,766.484c-2.839-6.373-5.655-12.757-8.533-19.113c-0.821-1.814-1.495-3.886-2.854-5.2
							c-0.928-0.897-4.054-1.293-4.279-0.876c-3.197,5.91-9.929,9.397-9.412,18.091c0.376,6.325-3.378,12.896-4.512,16.728
							c-13.821,3.11-25.075,4.65-32.477,15.683c-2.898-7.232-5.6-13.436-7.776-19.819c-0.487-1.43,0.441-3.788,1.446-5.202
							c3.925-5.519,8.207-10.785,12.188-16.266c0.658-0.906,0.838-2.484,0.63-3.642c-2.401-13.394,1.674-24.148,12.36-32.038
							c3.393,2.045,6.498,3.916,8.959,5.399c2.742,5.376,5.341,10.474,8.625,16.914c5.478-4.84,10.293-9.094,16.34-14.437
							c0,3.146,0.131,4.344-0.023,5.505c-0.638,4.82,0.808,6.594,5.998,5.246c2.364-0.614,5.206,0.615,7.831,1.008
							c-0.676,1.859-1.87,3.702-1.924,5.579c-0.121,4.205,0.41,8.424,0.515,12.642c0.108,4.314,0.024,8.633,0.024,12.95
							C931.76,765.92,930.718,766.202,929.676,766.484z"/>
					</g>
					<g>
						<path fill="#11213A" stroke="rgba(255,255,255,0.15)" stroke-width="2" d="M940.695,738.506c-1.55-7.346-4.246-11.266-10.283-11.934c-1.259-0.139-3.073-0.635-3.551-1.538
							c-2.077-3.927-4.079-8.069-9.449-5.438c-3.418,1.675-6.32,4.402-9.451,6.662c-0.531,0.383-1.048,0.784-1.542,1.155
							c-0.486-0.2-1.113-0.259-1.237-0.54c-3.088-6.976-5.903-13.426-14.332-16.663c-4.683-1.798-3.1-7.899,2.105-9.87
							c5.429-2.056,7.848-5.186,9.824-11.299c1.907-5.9,3.753-14.956,13.484-15.786c2.02-0.172,3.89-2.111,5.543-3.07
							c3.228,0.5,7.122,2.296,10.142,1.338c7.971-2.527,14.255,0.597,22.32,5.057c-2.927,1.882-5.155,3.323-7.398,4.74
							c-0.163,0.103-0.548-0.059-0.643,0.056c-2.117,2.57-5.812,5.061-5.98,7.768c-0.395,6.337-7.07,13.128,0.291,19.061
							c1.161,0.936,4.545,0.588,5.898-0.461c4.476-3.472,8.494-7.536,12.774-11.453c2.395,5.237-2.174,7.381-5.111,9.725
							c-6.724,5.367-6.667,7.619,0.946,11.097c-1.617,5.609-2.553,11.552-5.146,16.652
							C948.711,736.102,944.266,736.783,940.695,738.506z"/>
					</g>
					<g>
						<path fill="#11213A" stroke="rgba(255,255,255,0.15)" stroke-width="2" d="M1214.48,813.726c-10.036,7.645-20.239,15.416-30.799,23.46c-4.502-4.457-9.157-8.789-7.546-16.569
							c2.103-10.157-7.436-7.58-11.943-9.748c-5.488-2.641-6.143,3.122-7.604,6.589c-1.844,4.376-3.521,8.822-5.876,14.767
							c-7.134-10.468-23.073-11.578-19.786-28.293c3.226-0.6,7.414-0.838,11.174-2.23c3.823-1.416,7.02-4.906,10.872-5.753
							c3.632-0.798,7.768,0.604,11.666,1.155c1.78,0.251,3.709,1.466,5.239,1.043c3.027-0.836,5.719-2.882,8.745-3.722
							c2.846-0.79,5.944-0.672,9.258,0.578c0.466-0.427,1.17-0.77,1.358-1.296c0.776-2.177,1.397-4.41,2.075-6.623
							c1.863,1.557,3.717,3.124,5.593,4.666c0.85,0.699,1.732,1.908,2.62,1.927c7.506,0.162,7.433,4.961,7.936,10.715
							C1207.727,807.419,1211.63,810.128,1214.48,813.726z"/>
					</g>
					<g>
						<path fill="#11213A" stroke="rgba(255,255,255,0.15)" stroke-width="2" d="M875.356,719.396c-9.097-10.529-20.553-18.852-15.974-34.223c16.629-0.158,16.629-0.158,19.794-12.231
							c13.133-0.191,13.835-0.986,11.193-13.814c8.149,6.255,14.487,2.542,21.375-4.063c1.397,4.573,2.499,8.179,3.519,11.516
							c-0.337,0.731-0.496,1.415-0.677,1.421c-14.039,0.449-12.673,13.471-17.692,21.35c-1.726,2.709-4.519,5.107-7.367,6.635
							c-3.385,1.815-5.003,3.765-6.127,7.705C881.848,709.134,878.241,713.99,875.356,719.396z"/>
					</g>
					<g>
						<path fill="#11213A" stroke="rgba(255,255,255,0.15)" stroke-width="2" d="M796.494,632.156c-2.431,2.774-4.878,5.807-7.58,8.591c-3.395,3.498-7.066,5.644-12.407,3.526
							c-4.138-1.641-8.779-1.982-13.016-3.43c-0.964-0.329-2.116-3.445-1.594-4.255c4.511-7.008,7.232-15.622,16.591-18.457
							c3.512-1.063,12.558,2.667,14.251,6.527C793.825,627.136,795.156,629.506,796.494,632.156z"/>
					</g>
					<g>
						<path fill="#11213A" stroke="rgba(255,255,255,0.15)" stroke-width="2" d="M1227.087,818.174c3.553-2.598,6.48-4.737,10.788-7.888c3.807,1.436,9.441,3.252,14.743,5.766
							c1.435,0.681,2.512,3.435,2.636,5.312c0.352,5.306,0.283,10.659,0.036,15.977c-0.083,1.775-0.917,4.777-1.912,5.004
							c-2.651,0.604-6.714,1.155-8.198-0.313c-6.825-6.748-13.74-13.583-18.048-22.402
							C1226.788,818.923,1227.087,817.902,1227.087,818.174z"/>
					</g>
					<g>
						<path fill="#11213A" stroke="rgba(255,255,255,0.15)" stroke-width="2" d="M692.738,760.051c5.197-3.304,10.544-6.703,14.728-9.363c5.354,0,10.157-0.3,14.888,0.152
							c1.824,0.174,4.065,1.667,5.113,3.231c3.292,4.914-0.308,19.156-5.576,21.65c-1.376,0.651-4.079-0.484-5.693-1.534
							c-6.404-4.168-12.561-8.714-18.948-12.909C695.88,760.378,693.933,760.355,692.738,760.051z"/>
					</g>
					<path fill="#11213A" stroke="rgba(255,255,255,0.15)" stroke-width="2" d="M919.684,792.451c-2.989-3.668-4.933-11.5-11.637-4.001c-6.211-4.967-6.659-8.209-2.366-13.264
						c2.288-2.694,4.258-5.659,6.998-9.345c3.846,2.627,9.978-0.737,15.362,4.807c5.771,5.943-1.913,11.3,1.904,16.095
						C926.384,788.724,923.208,790.491,919.684,792.451z"/>
					<g>
						<path fill="#11213A" stroke="rgba(255,255,255,0.15)" stroke-width="2" d="M955.181,759.981c-4.912-5.417-9.955-10.979-15.164-16.723c0.522-0.086,2.047-0.282,3.548-0.595
							c2.946-0.615,6.05-0.89,8.775-2.045c4.013-1.701,9.652,0.371,13.11,5.146c1.574,2.174,3.596,4.023,5.506,6.12
							C966.448,754.198,961.174,756.905,955.181,759.981z"/>
					</g>
					<g>
						<path fill="#11213A" stroke="rgba(255,255,255,0.15)" stroke-width="2" d="M1244.882,779.894c-3.036,10.308-14.361,13.769-23.876,6.118
							C1229.993,785.359,1235.102,775.31,1244.882,779.894z"/>
					</g>
					<g>
						<g>
							<path fill="#11213A" stroke="rgba(255,255,255,0.15)" stroke-width="2" d="M516.568,400.865c-2.596-3.025-6.021-7.763-5.273-10.811c3.135-12.782-6.007-19.524-11.572-28.376
								c-3.669-5.837-8.477-13.807-7.033-19.316c1.972-7.519,11.147-4.355,17.627-3.654c0.876,0.095,2.089,0.7,2.547,0.329
								c1.174-0.952,2.941-2.413,2.832-3.506c-0.735-7.336-1.964-14.621-2.903-21.939c-1.046-8.145-2.035-16.299-2.845-24.469
								c-0.135-1.36,0.644-2.876,1.221-4.226c1.003-2.345,2.972-4.558,3.147-6.929c0.865-11.731,1.627-23.494,1.702-35.25
								c0.039-6.18-2.187-10.676-8.551-14.84c-12.923-8.456-12.502-7.089-10.38-22.028c0.466-3.278,0.509-6.616,0.831-11.105
								c-3.198,0-5.598,0-7.998,0c-23.384,0-46.769,0.088-70.152-0.088c-3.92-0.029-8.044-0.619-11.713-1.947
								c-33.037-11.955-65.986-24.15-98.976-36.237c-16.701-6.119-33.396-12.257-50.189-18.115c-2.183-0.762-6.01-0.85-7.162,0.448
								c-1.608,1.812-1.964,5.246-1.851,7.944c0.136,3.252,1.728,6.43,1.97,9.694c0.423,5.698,3.929,8.514,8.512,10.844
								c3.471,1.765,6.789,3.852,10.075,5.952c3.181,2.033,6.16,4.385,9.363,6.379c3.552,2.211,7.074,3.937,8.06-2.599
								c0.178-1.18,2.347-3.174,2.484-3.085c5.61,3.656,13.176,6.377,16.031,11.638c3.127,5.762,6.446,7.205,11.758,7.102
								c10.243-0.2,15.937,7.043,12.288,16.263c-2.947,7.445-1.606,14.279,3.184,20.022c5.983,7.174,9.079,15.212,10.552,24.257
								c0.512,3.146,2.162,6.216,3.762,9.056c5.299,9.406,9.573,19.467,17.283,27.38c0.821,0.842,0.873,2.44,1.265,3.693
								c2.48,7.925,3.613,16.686,13.286,19.943c1.003,0.338,1.576,2.483,2.007,3.894c2.098,6.869,5.115,12.743,12.59,15.417
								c2.243,0.802,4.078,3.225,5.684,5.238c4.485,5.624,5.543,15.625,15.107,14.829c7.193-0.599,12.572,3.569,19.059,4.333
								c3.381,0.398,4.947,2.056,3.17,6.071c-1.559,3.524-2.707,7.674-2.481,11.454c0.495,8.263,12.783,18.148,21.422,19.075
								c2.631,0.282,5.627,2.967,7.226,5.369c1.477,2.22,1.145,5.579,1.896,8.36c1.301,4.816,4.036,7.837,9.189,4.817
								c3.855-2.26,6.438-0.795,8.673,1.967c3.703,4.575,7.127,9.374,11.221,14.812c7.509-6.261,15.146-12.323,22.396-18.819
								C519.964,407.368,519.521,404.305,516.568,400.865z M354.47,312.003c1.495,0.649,3.053,1.325,4.646,2.016
								c3.657-5.466,4.406-10.553-0.349-15.492C355.992,300.185,355.992,300.185,354.47,312.003z"/>
						</g>
					</g>
					<path fill="#11213A" stroke="rgba(255,255,255,0.15)" stroke-width="2" d="M915.479,749.586c1.722,3.498,3.445,6.995,5.167,10.493c-0.548,0.662-1.096,1.323-1.644,1.985
						c-2.726-1.159-7.277-1.827-7.753-3.592c-0.723-2.685,1.38-6.13,2.283-9.253C914.181,749.341,914.83,749.463,915.479,749.586z"
						/>
					<g>
						<g>
							<path fill="#11213A" stroke="rgba(255,255,255,0.15)" stroke-width="2" d="M979.832,452.436c-4.689-4.32-10.083-5.59-15.915-4.723c-6.359,0.945-11.643-0.656-16.775-4.288
								c-2.626-1.858-5.81-2.995-8.847-4.193c-7.295-2.879-14.664-5.57-21.964-8.437c-0.714-0.28-1.112-1.3-1.733-1.896
								c-2.726-2.615-5.481-5.201-8.226-7.798l-0.003-0.024c-0.485,5.573,2.552,9.001,6.952,11.721
								c1.019,0.63,2.16,1.712,2.434,2.791c1.814,7.146,6.69,8.357,13.266,8.014c9.479-0.495,13.078,3.519,13.351,12.878
								c0.16,5.516-1.945,11.613,3.48,16.155c0.624,0.522,0.583,3.151-0.067,3.682c-7.326,5.994-14.139,13.361-22.543,17.016
								c-5.19,2.258-7.218,4.511-7.18,8.913c0.037,4.301-0.956,5.416-5.286,4.976c-2.559-0.26-5.538,0.953-7.914,2.257
								c-2.856,1.567-5.272,3.935-7.675,5.798c4.407,3.05,4.376,7.865,3.099,12.64c-1.315,4.914-1.284,8.787,3.17,12.42
								c1.552,1.266,2.392,6.244,1.319,7.343c-2.913,2.984-6.761,5.598-10.718,6.902c-6.862,2.26-8.773,4.58-7.775,11.97
								c0.212,1.57-0.153,4.589-0.663,4.681c-9.419,1.71-3.702,7.542-1.846,9.957c3.905,5.083,3.678,9.055-1.829,14.235
								c5.843,1.774,10.847,4.966,15.152,4.206c6.297-1.113,11.091-0.819,14.175,4.648c3.98,7.056,12.949,9.579,20.745,8.24
								c10.578-1.817,21.624-6.947,32.098,1.073c1.314,1.006,3.555,0.803,5.366,1.16c0.624-0.19,1.249-0.381,1.873-0.571
								c-6.736-8.373-3.021-15.417,1.005-22.481c0.631-1.108,1.198-2.705,0.889-3.826c-3.261-11.846,3.357-24.362-2.465-36.03
								c-0.294-0.589,0.356-1.61,0.461-2.443c0.89-7.087,1.953-14.163,2.476-21.278c0.117-1.594-1.753-3.295-2.583-5.007
								c-1.875-3.867-3.944-7.701,1.977-10.266c1.069-0.463,2.008-2.563,2.005-3.905c-0.007-3.696-0.653-7.386-0.849-11.088
								c-0.265-5.007-0.346-10.023-0.506-15.035c-0.704-0.22-1.408-0.44-2.111-0.66c5.756-5.418,10.362-13.214,21.62-8.51
								c1.854-6.716,3.577-12.959,5.3-19.202C989.121,458.997,986.961,459.004,979.832,452.436z M907.012,415.229
								c-3.511-1.61-7.657-2.755-4.388-8.044c0.342-0.554-0.808-1.897-0.978-2.921c-1.21-7.284-2.194-14.611-3.579-21.86
								c-0.549-2.875-1.21-6.418-3.161-8.128c-1.672-1.466-5.255-0.751-7.03-0.913c1.839,4.708,3.103,8.622,4.86,12.302
								c3.376,7.071-3.501,16.976,6.201,22.266c0.249,0.136,0.407,0.904,0.263,1.223c-2.046,4.547,1.4,5.454,4.289,7.196
								c1.401,0.845,1.947,3.109,2.881,4.73c0,0,0.003,0.024,0.002,0.015C906.584,419.136,906.798,417.186,907.012,415.229z
								 M979.998,497.046c1.471-5.135,2.712-9.47,3.967-13.85c-2.249-0.569-4.484-1.134-8.459-2.139
								C980.239,486.238,972.943,492.612,979.998,497.046z"/>
						</g>
					</g>
					<g>
						<path fill="#11213A" stroke="rgba(255,255,255,0.15)" stroke-width="2" d="M1211.77,790.227c-2.618-0.24-5.311-0.191-7.826-0.836c-1.392-0.357-2.485-1.879-3.713-2.875
							c1.328-0.799,2.575-2.027,4.002-2.295c2.092-0.394,4.313-0.101,6.589-0.101c0.299,2.422,0.537,4.351,0.775,6.284
							C1211.598,790.406,1211.77,790.227,1211.77,790.227z"/>
					</g>
					<g>
						<g>
							<path fill="#11213A" stroke="rgba(255,255,255,0.15)" stroke-width="2" d="M473.149,560.948c-1.976-1.009-3.747-2.971-4.901-4.921c-2.324-3.928-3.87-8.329-6.312-12.17
								c-1.376-2.164-4.038-3.466-5.865-5.398c-2.297-2.431-4.332-5.11-6.928-8.218c-3.53,4.874-4.924,10.744-10.922,6.812
								c-12.442-8.156-15.268-16.241-11.957-30.835c0.515-2.271-0.511-5.225-1.619-7.472c-3.674-7.449-7.694-14.729-11.626-22.05
								c-0.719-1.338-1.494-2.704-2.507-3.816c-6.948-7.627-13.273-15.455-11.78-26.835c0.217-1.651-0.346-3.518-0.941-5.142
								c-2.909-7.938-5.919-15.84-8.971-23.724c-0.63-1.627-1.592-3.126-2.401-4.684l-1.707,1.792
								c0.253,0.362,0.484,0.74,0.761,1.082c1.995,2.464,5.858,4.921,1.65,8.173c-3.754,2.902-6.259-0.133-7.848-3.236
								c-2.141-4.182-3.563-8.743-5.816-12.855c-2.799-5.108-3.515-11.731-9.994-14.4c-0.684-0.281-0.529-2.197-1.205-2.967
								c-4.403-5.022-3.818-12.854-11.082-16.711c-5.026-2.669-8.303-8.566-12.51-12.875c-1.581-1.619-3.555-3.99-5.399-4.036
								c-13.573-0.345-27.16-0.27-40.74-0.101c-2.023,0.025-4.032,1.233-7.084,2.234c2.293,2.128,3.296,3.307,4.529,4.151
								c2.667,1.826,6.695,2.937,3.861,7.446c-2.109,3.355-9.278,4.226-12.403,1.736c-2.755-2.195-5.362-5.835-8.364-6.212
								c-7.266-0.914-14.725-0.297-21.756-0.297c5.3,4.279,11.348,8.855,16.979,13.898c1.638,1.467,1.781,4.482,3.156,6.394
								c1.518,2.111,3.369,4.313,5.594,5.523c6.986,3.799,14.263,7.059,21.306,10.76c1.228,0.645,1.828,2.445,2.783,3.661
								c1.586,2.02,3.223,4,3.97,4.922c4.084-1.012,7.002-1.467,9.704-2.49c2.178-0.825,4.193-2.204,6.1-3.587
								c1.555-1.128,2.841-2.626,4.247-3.96c1.132,1.908,2.654,3.694,3.302,5.754c0.892,2.837,0.132,6.76,1.826,8.67
								c4.896,5.52,10.068,11.231,16.254,15.05c6.647,4.104,13.656,6.698,18.128,14.144c6.01,10.007,9.663,20.141,8.616,31.853
								c-0.597,6.676-3.566,14.902-0.768,19.677c3.603,6.149,5.656,15.746,15.649,16.775c0.975,0.1,1.753,1.855,2.672,2.792
								c3.045,3.106,5.872,6.483,9.218,9.223c8.389,6.867,17.023,13.435,25.547,20.138c5.168,4.064,10.394,8.061,15.44,12.273
								c2.666,2.225,5.864,4.424,7.305,7.376c2.879,5.898,4.949,12.232,6.92,18.521c2.543,8.111,4.363,8.769,10.655,3.398
								c2.009-1.715,4.173-3.431,6.56-4.482c4.729-2.081,6.517-5.549,6.587-10.524C479.127,566.454,477.512,563.175,473.149,560.948
								z M369.696,508.51c0.763,6.049,3.478,8.59,9.917,6.828C378.306,510.368,376.118,507.278,369.696,508.51z"/>
						</g>
					</g>
					<g>
						<g>
							<path fill="#11213A" stroke="rgba(255,255,255,0.15)" stroke-width="2" d="M1138.681,827.771c-7.754-3.874-14.632-8.552-13.269-18.937c0.073-0.552-0.479-1.185-1.008-2.39
								c-2.253,0.214-4.741,0.041-6.956,0.737c-6.472,2.036-10.733,0.347-14.545-5.602c-3.229-5.039-5.751-11.873-13.798-11.785
								c-0.924,0.01-2.06-0.924-2.758-1.719c-5.476-6.235-12.207-6.278-19.526-4.337c-8.037,2.131-18.444-3.435-19.946-10.071
								c-0.615-2.717-2.03-5.492-3.79-7.668c-7.235-8.942-14.264-17.855-15.278-30.008c-0.191-2.289-1.396-4.753-2.803-6.635
								c-4.916-6.577-10.074-12.975-15.238-19.363c-4.592-5.68-10.341-10.697-13.764-16.994
								c-7.266-13.366-13.473-27.318-19.832-41.159c-1.543-3.358-2.165-7.183-2.911-10.854c-1.46-7.191-2.214-14.729-8.759-19.518
								c-4.871-3.564-9.629-8.533-14.465-5.163c-0.597,5.556-0.643,9.456-1.514,13.163c-0.966,4.114-6.983,7.029-2.726,12.523
								c0.395,0.51-1.447,2.94-2.474,4.311c-1.004,1.34-2.295,2.465-2.644,2.83c2.416,6.316,4.468,11.681,6.327,16.542
								c1.952,0.34,5.176-0.08,6.659,1.331c6.518,6.196,6.534,6.471,1.7,18.044c-0.775,1.856-4.229,2.593-7.161,4.252
								c-1.71,3.495-3.938,8.049-6.165,12.601c4.019-1.295,6.883-3.444,9.734-5.613c5.262-4.003,10.246-8.495,15.949-11.714
								c1.551-0.875,5.538,1.697,7.884,3.406c1.606,1.17,2.29,3.593,3.416,5.438c1.503,2.463,4.622,5.267,4.169,7.275
								c-0.622,2.758-3.941,4.908-7.06,8.383c1.272,2.806,3.299,5.04,7.894,1.788c3.376-2.39,15.604,1.565,16.821,5.362
								c0.462,1.442,0.142,3.874-0.83,4.905c-3.851,4.085-5.124,8.706-5.984,14.262c-1.83,11.824-1.94,12.527,9.53,16.049
								c4.666,1.432,5.684,4.654,1.945,7.709c-2.415,1.973-5.731,2.843-7.444,3.645c-1.151,5.989-2.161,11.247-3.167,16.48
								c6.093,1.365,10.17,10.896,19.093,6.691c0.504-0.238,1.901,1.419,2.995,2.282c0.392-2.617,0.76-5.075,1.255-8.384
								c6.345,4.312,13.667,4.707,16.385,13.23c1.574,4.936,5.874,9.726,13.303,10.02c10.434,0.414,13.612,7.381,7.629,15.863
								c-3.075,4.359-0.828,7.637,1.536,9.964c1.48,1.458,5.653,1.356,8.05,0.451c4.307-1.627,8.088-4.59,12.273-6.612
								c3.835-1.853,5.906-0.577,5.58,3.982c-0.292,4.081,8.447,17.24,12.181,17.557c13.263,1.127,26.564,2.316,39.849,2.294
								c3.086-0.005,7.521-4.124,8.915-7.385C1145.858,834.743,1143.71,830.283,1138.681,827.771z M986.665,655.13
								c-2.527-3.211-5.003-6.356-7.478-9.502C979.598,650.963,980.364,655.923,986.665,655.13z"/>
						</g>
					</g>
				</g>
			</g>
			
			
			
			
			
			
			
			
			
			
			
			
			
			
			
			
			
			
			
			
			
			
			
			
			
			
			
			
			
			
			
			
			
			
			
			
			
			
			
			
			
			
			
			
			
			
			
		</g>
		<g>
			<g>
				<g>
					<g>
						<g>
							<path fill="#11213A" stroke="rgba(255,255,255,0.15)" stroke-width="2" d="M1062.233,100.905v101.749h-23.127l-0.031-68.691l-9.208,68.691h-16.402l-9.71-67.12l-0.031,67.12
								h-23.128V100.905h34.236c1.016,6.118,2.062,13.327,3.141,21.631l3.757,25.881l6.081-47.512H1062.233z"/>
						</g>
					</g>
					<g>
						<g>
							<path fill="#11213A" stroke="rgba(255,255,255,0.15)" stroke-width="2" d="M1072.855,100.905h44.118v20.363h-17.659v19.294h16.529v19.357h-16.529v22.374h19.419v20.361h-45.878
								V100.905z"/>
						</g>
					</g>
					<g>
						<g>
							<path fill="#11213A" stroke="rgba(255,255,255,0.15)" stroke-width="2" d="M1179.976,100.905l-9.301,44.998l14.015,56.75h-24.511c-2.929-10.143-5.611-22.503-8.044-37.079
								c-0.666,6.457-1.596,13.286-2.79,20.489l-2.489,16.59h-25.767l9.616-56.75l-9.616-44.998h25.578
								c0.465,2.803,1.384,7.472,2.758,14.01c1.109,4.982,2.013,9.571,2.71,13.768l5.656-27.778H1179.976z"/>
						</g>
					</g>
					<g>
						<g>
							<path fill="#11213A" stroke="rgba(255,255,255,0.15)" stroke-width="2" d="M1214.888,100.905v101.749h-26.458V100.905H1214.888z"/>
						</g>
					</g>
					<g>
						<g>
							<path fill="#11213A" stroke="rgba(255,255,255,0.15)" stroke-width="2" d="M1287.288,145.212h-26.458v-17.685c0-5.142-0.283-8.35-0.848-9.626
								c-0.566-1.274-1.813-1.913-3.74-1.913c-2.179,0-3.561,0.775-4.148,2.325c-0.588,1.551-0.88,4.902-0.88,10.056v47.261
								c0,4.944,0.292,8.17,0.88,9.678c0.587,1.508,1.906,2.263,3.959,2.263c1.969,0,3.258-0.755,3.866-2.268
								c0.607-1.513,0.911-5.061,0.911-10.648v-12.789h26.458v3.965c0,10.532-0.744,18.001-2.231,22.406
								c-1.488,4.406-4.777,8.266-9.868,11.581c-5.091,3.314-11.365,4.973-18.823,4.973c-7.751,0-14.141-1.405-19.169-4.212
								c-5.027-2.806-8.358-6.692-9.992-11.657c-1.634-4.965-2.451-12.433-2.451-22.405V136.79c0-7.331,0.251-12.83,0.754-16.497
								c0.502-3.666,2-7.196,4.494-10.59c2.491-3.394,5.948-6.064,10.37-8.013c4.42-1.948,9.499-2.922,15.24-2.922
								c7.793,0,14.224,1.506,19.293,4.519c5.069,3.013,8.4,6.769,9.993,11.266c1.591,4.498,2.388,11.495,2.388,20.993V145.212z"/>
						</g>
					</g>
					<g>
						<g>
							<path fill="#11213A" stroke="rgba(255,255,255,0.15)" stroke-width="2" d="M1357.236,160.484c0,10.224-0.242,17.462-0.722,21.714c-0.482,4.252-1.99,8.138-4.524,11.658
								c-2.536,3.519-5.961,6.222-10.276,8.107c-4.316,1.886-9.344,2.828-15.084,2.828c-5.447,0-10.338-0.891-14.675-2.671
								c-4.336-1.781-7.825-4.452-10.464-8.013c-2.64-3.561-4.211-7.437-4.713-11.627c-0.503-4.189-0.754-11.521-0.754-21.996
								v-17.408c0-10.223,0.24-17.461,0.723-21.714c0.481-4.252,1.989-8.139,4.525-11.658c2.534-3.519,5.959-6.221,10.275-8.107
								c4.314-1.885,9.343-2.828,15.083-2.828c5.447,0,10.338,0.89,14.675,2.671c4.337,1.781,7.825,4.452,10.464,8.013
								c2.64,3.562,4.211,7.437,4.713,11.627c0.503,4.19,0.754,11.523,0.754,21.996V160.484z M1330.778,127.049
								c0-4.734-0.262-7.762-0.786-9.081c-0.524-1.32-1.602-1.979-3.236-1.979c-1.382,0-2.441,0.534-3.174,1.602
								c-0.734,1.069-1.1,4.221-1.1,9.459v47.512c0,5.908,0.24,9.553,0.723,10.936c0.481,1.382,1.602,2.075,3.362,2.075
								c1.801,0,2.954-0.796,3.457-2.389c0.503-1.591,0.754-5.383,0.754-11.375V127.049z"/>
						</g>
					</g>
				</g>
				<g>
					<g>
						<g>
							<g>
								<rect x="891.102" y="138.857" fill="#11213A" stroke="rgba(255,255,255,0.15)" stroke-width="2" width="76.412" height="5.746"/>
							</g>
							<g>
								<rect x="891.102" y="158.956" fill="#11213A" stroke="rgba(255,255,255,0.15)" stroke-width="2" width="76.412" height="5.746"/>
							</g>
						</g>
						<g>
							<g>
								<rect x="1370.316" y="138.857" fill="#11213A" stroke="rgba(255,255,255,0.15)" stroke-width="2" width="76.412" height="5.746"/>
							</g>
							<g>
								<rect x="1370.316" y="158.956" fill="#11213A" stroke="rgba(255,255,255,0.15)" stroke-width="2" width="76.412" height="5.746"/>
							</g>
						</g>
					</g>
				</g>
			</g>
		</g>
	</g>
	</g>
</svg>